<svg width="19" height="20" viewBox="0 0 19 20" fill="none" xmlns="http://www.w3.org/2000/svg">
<path d="M0.59375 12.2563C0.751222 12.2563 0.902245 12.3189 1.01359 12.4303C1.12494 12.5416 1.1875 12.6926 1.1875 12.8501V15.8188C1.1875 16.1338 1.31261 16.4358 1.53531 16.6585C1.75801 16.8812 2.06006 17.0063 2.375 17.0063H16.625C16.9399 17.0063 17.242 16.8812 17.4647 16.6585C17.6874 16.4358 17.8125 16.1338 17.8125 15.8188V12.8501C17.8125 12.6926 17.8751 12.5416 17.9864 12.4303C18.0978 12.3189 18.2488 12.2563 18.4062 12.2563C18.5637 12.2563 18.7147 12.3189 18.8261 12.4303C18.9374 12.5416 19 12.6926 19 12.8501V15.8188C19 16.4487 18.7498 17.0528 18.3044 17.4982C17.859 17.9436 17.2549 18.1938 16.625 18.1938H2.375C1.74511 18.1938 1.14102 17.9436 0.695621 17.4982C0.250223 17.0528 0 16.4487 0 15.8188V12.8501C0 12.6926 0.0625556 12.5416 0.173905 12.4303C0.285255 12.3189 0.436278 12.2563 0.59375 12.2563Z" fill="#ED6D00"/>
<path d="M9.08038 14.5766C9.13553 14.6319 9.20105 14.6758 9.27319 14.7057C9.34532 14.7357 9.42265 14.7511 9.50075 14.7511C9.57885 14.7511 9.65618 14.7357 9.72831 14.7057C9.80045 14.6758 9.86597 14.6319 9.92113 14.5766L13.4836 11.0141C13.5951 10.9026 13.6577 10.7514 13.6577 10.5938C13.6577 10.4361 13.5951 10.2849 13.4836 10.1734C13.3721 10.0619 13.2209 9.99925 13.0633 9.99925C12.9056 9.99925 12.7544 10.0619 12.6429 10.1734L10.0945 12.7229V2.28125C10.0945 2.12378 10.0319 1.97276 9.9206 1.86141C9.80925 1.75006 9.65822 1.6875 9.50075 1.6875C9.34328 1.6875 9.19226 1.75006 9.08091 1.86141C8.96956 1.97276 8.907 2.12378 8.907 2.28125V12.7229L6.35863 10.1734C6.24714 10.0619 6.09592 9.99925 5.93825 9.99925C5.78058 9.99925 5.62937 10.0619 5.51788 10.1734C5.40638 10.2849 5.34375 10.4361 5.34375 10.5938C5.34375 10.7514 5.40638 10.9026 5.51788 11.0141L9.08038 14.5766Z" fill="#ED6D00"/>
</svg>
