<svg width="48" height="49" viewBox="0 0 48 49" fill="none" xmlns="http://www.w3.org/2000/svg">
<rect x="0.5" y="1" width="47" height="47" rx="3.5" fill="white"/>
<rect x="0.5" y="1" width="47" height="47" rx="3.5" stroke="#99ABED"/>
<g clip-path="url(#clip0_6899_57646)">
<path d="M12.0791 15.6015C10.2237 18.083 9.125 21.1632 9.125 24.5C9.125 26.7703 9.63362 28.9219 10.5431 30.8469M15.3215 36.5823C17.764 38.3398 20.7611 39.375 24 39.375C26.2993 39.375 28.4767 38.8533 30.4203 37.9219M35.9612 33.3444C37.7922 30.8723 38.875 27.8126 38.875 24.5C38.875 22.2209 38.3624 20.0615 37.4463 18.1309M32.5373 12.3173C30.1209 10.6208 27.1767 9.625 24 9.625C21.7127 9.625 19.546 10.1413 17.61 11.0636" stroke="#2070F3" stroke-width="2" stroke-linecap="round" stroke-linejoin="round"/>
<path fill-rule="evenodd" clip-rule="evenodd" d="M13.8623 16.2609C14.9123 16.2609 15.7636 15.4097 15.7636 14.3596C15.7636 13.3096 14.9123 12.4583 13.8623 12.4583C12.8122 12.4583 11.9609 13.3096 11.9609 14.3596C11.9609 15.4097 12.8122 16.2609 13.8623 16.2609ZM13.8623 36.5416C14.9123 36.5416 15.7636 35.6904 15.7636 34.6403C15.7636 33.5903 14.9123 32.739 13.8623 32.739C12.8122 32.739 11.9609 33.5903 11.9609 34.6403C11.9609 35.6904 12.8122 36.5416 13.8623 36.5416ZM34.143 16.2609C35.193 16.2609 36.0443 15.4097 36.0443 14.3596C36.0443 13.3096 35.193 12.4583 34.143 12.4583C33.0929 12.4583 32.2416 13.3096 32.2416 14.3596C32.2416 15.4097 33.0929 16.2609 34.143 16.2609ZM34.143 36.5416C35.193 36.5416 36.0443 35.6904 36.0443 34.6403C36.0443 33.5903 35.193 32.739 34.143 32.739C33.0929 32.739 32.2416 33.5903 32.2416 34.6403C32.2416 35.6904 33.0929 36.5416 34.143 36.5416Z" stroke="#2070F3" stroke-width="2" stroke-linecap="round" stroke-linejoin="round"/>
<path d="M24.0026 34.4166C29.4794 34.4166 33.9193 29.9768 33.9193 24.5C33.9193 19.0232 29.4794 14.5833 24.0026 14.5833C18.5258 14.5833 14.0859 19.0232 14.0859 24.5C14.0859 29.9768 18.5258 34.4166 24.0026 34.4166Z" stroke="#2070F3" stroke-width="2" stroke-linecap="round" stroke-linejoin="round"/>
<path d="M23.2891 33.7084C26.2839 30.921 28.0712 27.1472 28.2474 23.0834M27.5391 20.9584C27.383 19.0261 26.9249 17.1652 26.1916 15.4505L26.1224 15.2917" stroke="#2070F3" stroke-width="2" stroke-linecap="round" stroke-linejoin="round"/>
<path d="M32.5 21.5223C28.7442 20.5495 24.7094 20.836 21.1667 22.375M19.75 23.7916C18.0438 24.9274 16.6074 26.3694 15.5 28.0416" stroke="#2070F3" stroke-width="2" stroke-linecap="round" stroke-linejoin="round"/>
<path d="M16.9141 18.125C17.7085 22.4979 20.2412 26.3467 23.9974 28.75M26.1224 29.4583C27.6998 30.2117 29.3706 30.6866 31.0807 30.875" stroke="#2070F3" stroke-width="2" stroke-linecap="round" stroke-linejoin="round"/>
</g>
<defs>
<clipPath id="clip0_6899_57646">
<rect width="34" height="34" fill="white" transform="translate(7 7.5)"/>
</clipPath>
</defs>
</svg>
