<svg width="60" height="60" viewBox="0 0 60 60" fill="none" xmlns="http://www.w3.org/2000/svg">
<rect width="60" height="60" rx="30" fill="#FDF1EF"/>
<path d="M43.158 27.2325L41.106 21.0765C40.8083 20.1802 40.2358 19.4006 39.4697 18.8483C38.7036 18.296 37.7829 17.9992 36.8385 18H23.1615C22.2171 17.9992 21.2964 18.296 20.5303 18.8483C19.7642 19.4006 19.1917 20.1802 18.894 21.0765L16.842 27.2325C16.2963 27.4608 15.8303 27.8454 15.5026 28.3378C15.1749 28.8302 15 29.4085 15 30V37.5C15 38.607 15.606 39.564 16.5 40.0845V43.5C16.5 43.8978 16.658 44.2794 16.9393 44.5607C17.2206 44.842 17.6022 45 18 45H19.5C19.8978 45 20.2794 44.842 20.5607 44.5607C20.842 44.2794 21 43.8978 21 43.5V40.5H39V43.5C39 43.8978 39.158 44.2794 39.4393 44.5607C39.7206 44.842 40.1022 45 40.5 45H42C42.3978 45 42.7794 44.842 43.0607 44.5607C43.342 44.2794 43.5 43.8978 43.5 43.5V40.0845C43.9551 39.8235 44.3334 39.4472 44.5967 38.9935C44.86 38.5397 44.9991 38.0246 45 37.5V30C45 29.4085 44.8251 28.8302 44.4974 28.3378C44.1697 27.8454 43.7037 27.4608 43.158 27.2325ZM23.1615 21H36.837C37.4835 21 38.0565 21.411 38.2605 22.026L39.9195 27H20.0805L21.738 22.026C21.8375 21.7272 22.0286 21.4673 22.2841 21.2831C22.5396 21.099 22.8466 20.9999 23.1615 21ZM20.25 36C19.9544 35.9999 19.6618 35.9416 19.3887 35.8284C19.1157 35.7152 18.8676 35.5493 18.6587 35.3402C18.4498 35.1312 18.2841 34.883 18.171 34.6099C18.058 34.3368 17.9999 34.0441 18 33.7485C18.0001 33.4529 18.0584 33.1603 18.1716 32.8872C18.2848 32.6142 18.4507 32.3661 18.6598 32.1572C18.8688 31.9483 19.117 31.7826 19.3901 31.6695C19.6632 31.5565 19.9559 31.4984 20.2515 31.4985C20.8484 31.4987 21.4208 31.736 21.8428 32.1583C22.2648 32.5805 22.5017 33.1531 22.5015 33.75C22.5013 34.3469 22.264 34.9193 21.8417 35.3413C21.4195 35.7633 20.8469 36.0002 20.25 36ZM39.75 36C39.4544 35.9999 39.1618 35.9416 38.8887 35.8284C38.6157 35.7152 38.3676 35.5493 38.1587 35.3402C37.9498 35.1312 37.7841 34.883 37.671 34.6099C37.558 34.3368 37.4999 34.0441 37.5 33.7485C37.5001 33.4529 37.5584 33.1603 37.6716 32.8872C37.7848 32.6142 37.9507 32.3661 38.1598 32.1572C38.3688 31.9483 38.617 31.7826 38.8901 31.6695C39.1632 31.5565 39.4559 31.4984 39.7515 31.4985C40.3484 31.4987 40.9208 31.736 41.3428 32.1583C41.7648 32.5805 42.0017 33.1531 42.0015 33.75C42.0013 34.3469 41.764 34.9193 41.3417 35.3413C40.9195 35.7633 40.3469 36.0002 39.75 36Z" fill="#F36900"/>
</svg>
